<svg xmlns="http://www.w3.org/2000/svg" width="160" height="160" viewBox="0 0 160 160">
  <g id="Group_349" data-name="Group 349" transform="translate(-754 -1121)">
    <circle id="Ellipse_48" data-name="Ellipse 48" cx="80" cy="80" r="80" transform="translate(754 1121)" fill="#21a8b5" opacity="0.129"/>
    <path id="Path_135" data-name="Path 135" d="M64.779,69.577V53.982A18.015,18.015,0,0,0,46.785,35.988H45.478a14.444,14.444,0,0,0,1.209-1.2h1.3a6,6,0,0,0,6-6V26.677a5.389,5.389,0,0,0-.014-8.977,17.982,17.982,0,0,0-35.959,0,5.395,5.395,0,0,0,2.985,9.891h.817a14.37,14.37,0,0,0,4.689,8.4H25.192A18.015,18.015,0,0,0,7.2,53.982V69.577H0v2.4H71.977v-2.4Zm-13.2-40.787a3.592,3.592,0,0,1-3.118,3.55,14.266,14.266,0,0,0,1.7-4.749h.817a5.207,5.207,0,0,0,.6-.061Zm2.4-6.6a3,3,0,0,1-3,3h-.6v-6h.6A3,3,0,0,1,53.982,22.193Zm-32.389,3h-.6a3,3,0,1,1,0-6h.6Zm-.6-8.4a5.061,5.061,0,0,0-.542.055,15.578,15.578,0,0,1,31.075,0,5.06,5.06,0,0,0-.542-.055h-.817a14.377,14.377,0,0,0-28.356,0Zm26.99,2.369c-8.658-.3-14.394-3.845-14.394-7.168a1.2,1.2,0,0,0-2.4,0c0,3-3.1,5.482-7.128,5.922a11.995,11.995,0,0,1,23.921,1.245ZM23.992,25.192V20.326A11.085,11.085,0,0,0,32.5,15.664c2.51,3.325,8.374,5.666,15.48,5.9v3.623a11.921,11.921,0,0,1-2.422,7.2H35.988v2.4h7.166a11.988,11.988,0,0,1-19.163-9.6ZM32.28,39.086a13.961,13.961,0,0,0,7.416,0L35.988,46.5Zm1.767,8.9H31.931l-4.8-9.6h2.116Zm8.68-9.6h2.116l-4.8,9.6H37.929ZM13.2,53.982V69.577H9.6V53.982A15.6,15.6,0,0,1,24.468,38.425l4.78,9.56H19.194A6,6,0,0,0,13.2,53.982ZM56.382,69.577H15.595V53.982a3.6,3.6,0,0,1,3.6-3.6H52.783a3.6,3.6,0,0,1,3.6,3.6Zm6,0h-3.6V53.982a6,6,0,0,0-6-6H42.728l4.78-9.56A15.6,15.6,0,0,1,62.38,53.982Z" transform="translate(801.322 1160.746)"/>
  </g>
</svg>
