<svg xmlns="http://www.w3.org/2000/svg" width="160" height="160" viewBox="0 0 160 160">
  <g id="Group_350" data-name="Group 350" transform="translate(-1014 -1121)">
    <circle id="Ellipse_48" data-name="Ellipse 48" cx="80" cy="80" r="80" transform="translate(1014 1121)" fill="#21a8b5" opacity="0.129"/>
    <g id="_005-presentation" data-name="005-presentation" transform="translate(1054.428 1166.111)">
      <g id="Group_8" data-name="Group 8" transform="translate(6.134 13.495)">
        <g id="Group_7" data-name="Group 7">
          <path id="Path_94" data-name="Path 94" d="M52.816,90.224A7.3,7.3,0,0,0,47.548,88H47.17a7.3,7.3,0,0,0-5.262,2.224,6.748,6.748,0,0,0-1.9,5l.144,3.3a7.052,7.052,0,0,0,7.165,6.646h.093A7.052,7.052,0,0,0,54.57,98.53l.15-3.3A6.748,6.748,0,0,0,52.816,90.224Zm-.7,8.2a4.606,4.606,0,0,1-4.714,4.294h-.093A4.606,4.606,0,0,1,42.6,98.428l-.043-1a11.072,11.072,0,0,0,6.414-2.407,5.479,5.479,0,0,0,3.2,2.244Zm-1.538-5.8a1.231,1.231,0,0,0-2.284-.456c-.016.026-1.538,2.434-5.835,2.8a4.327,4.327,0,0,1,1.217-3.049,4.85,4.85,0,0,1,3.492-1.472h.378a4.85,4.85,0,0,1,3.492,1.472,4.323,4.323,0,0,1,1.2,2.756A2.9,2.9,0,0,1,50.58,92.629Z" transform="translate(-39.997 -88)"/>
        </g>
      </g>
      <g id="Group_10" data-name="Group 10" transform="translate(53.981 42.94)">
        <g id="Group_9" data-name="Group 9">
          <path id="Path_95" data-name="Path 95" d="M364.816,282.224A7.3,7.3,0,0,0,359.547,280h-.378a7.3,7.3,0,0,0-5.262,2.224,6.748,6.748,0,0,0-1.9,5l.144,3.3a7.052,7.052,0,0,0,7.165,6.646h.093a7.052,7.052,0,0,0,7.165-6.646l.15-3.3A6.748,6.748,0,0,0,364.816,282.224Zm-.55,4.9-.147,3.3a4.606,4.606,0,0,1-4.714,4.294h-.093a4.606,4.606,0,0,1-4.714-4.294l-.147-3.306a4.33,4.33,0,0,1,1.227-3.2,4.85,4.85,0,0,1,3.492-1.472h.378a4.85,4.85,0,0,1,3.492,1.472A4.331,4.331,0,0,1,364.266,287.128Z" transform="translate(-351.997 -280)"/>
        </g>
      </g>
      <g id="Group_12" data-name="Group 12" transform="translate(0 16.887)">
        <g id="Group_11" data-name="Group 11">
          <path id="Path_96" data-name="Path 96" d="M37.9,111.072a3.4,3.4,0,0,0-4.722,0l-13.7,13.7a1.227,1.227,0,0,1-.869.359H6.134A6.142,6.142,0,0,0,0,131.262v17.176a3.682,3.682,0,0,0,4.907,3.471v1.437a1.227,1.227,0,0,0,1.227,1.227H20.857a1.227,1.227,0,0,0,1.227-1.227V133.453a1.228,1.228,0,0,1,.329-.837L37.98,115.874A3.4,3.4,0,0,0,37.9,111.072Zm-1.672,3.086-.013.013-15.6,16.776a3.681,3.681,0,0,0-.981,2.506v18.665H7.361v-18.4a1.227,1.227,0,1,0-2.454,0v14.722a1.227,1.227,0,1,1-2.454,0V131.262a3.681,3.681,0,0,1,3.681-3.681H18.613a3.654,3.654,0,0,0,2.6-1.078l13.7-13.7a.968.968,0,0,1,1.332,0A.956.956,0,0,1,36.228,114.158Z" transform="translate(0 -110.117)"/>
        </g>
      </g>
      <g id="Group_14" data-name="Group 14" transform="translate(12.269 35.579)">
        <g id="Group_13" data-name="Group 13">
          <path id="Path_97" data-name="Path 97" d="M81.227,232A1.227,1.227,0,0,0,80,233.227v14.722a1.227,1.227,0,0,0,2.454,0V233.227A1.227,1.227,0,0,0,81.227,232Z" transform="translate(-80 -232)"/>
        </g>
      </g>
      <g id="Group_16" data-name="Group 16" transform="translate(26.99 42.94)">
        <g id="Group_15" data-name="Group 15">
          <path id="Path_98" data-name="Path 98" d="M188.809,282.224A7.3,7.3,0,0,0,183.547,280h-.378a7.3,7.3,0,0,0-5.262,2.224,6.747,6.747,0,0,0-1.9,5l.144,3.3a7.052,7.052,0,0,0,7.165,6.646h.093a7.052,7.052,0,0,0,7.165-6.646l.144-3.3A6.747,6.747,0,0,0,188.809,282.224Zm-.544,4.9-.147,3.3a4.606,4.606,0,0,1-4.714,4.294h-.093a4.606,4.606,0,0,1-4.714-4.294l-.147-3.306a4.33,4.33,0,0,1,1.227-3.2,4.85,4.85,0,0,1,3.492-1.472h.378a4.85,4.85,0,0,1,3.492,1.472A4.331,4.331,0,0,1,188.266,287.128Z" transform="translate(-175.997 -280)"/>
        </g>
      </g>
      <g id="Group_18" data-name="Group 18" transform="translate(22.083 61.343)">
        <g id="Group_17" data-name="Group 17">
          <path id="Path_99" data-name="Path 99" d="M162.608,400H149.929A5.936,5.936,0,0,0,144,405.929v5.112a1.227,1.227,0,0,0,2.454,0v-5.112a3.479,3.479,0,0,1,3.476-3.476h12.678a3.479,3.479,0,0,1,3.476,3.476v5.112a1.227,1.227,0,0,0,2.454,0v-5.112A5.936,5.936,0,0,0,162.608,400Z" transform="translate(-144 -400)"/>
        </g>
      </g>
      <g id="Group_20" data-name="Group 20" transform="translate(49.074 61.343)">
        <g id="Group_19" data-name="Group 19">
          <path id="Path_100" data-name="Path 100" d="M338.608,400H325.929A5.936,5.936,0,0,0,320,405.929v5.112a1.227,1.227,0,1,0,2.454,0v-5.112a3.479,3.479,0,0,1,3.476-3.476h12.678a3.479,3.479,0,0,1,3.476,3.476v5.112a1.227,1.227,0,0,0,2.454,0v-5.112A5.936,5.936,0,0,0,338.608,400Z" transform="translate(-320 -400)"/>
        </g>
      </g>
      <g id="Group_22" data-name="Group 22" transform="translate(23.31)">
        <g id="Group_21" data-name="Group 21">
          <path id="Path_101" data-name="Path 101" d="M198.681,0H155.619A3.655,3.655,0,0,0,152,3.681v18.4a1.227,1.227,0,1,0,2.454,0V7.361h45.394V36.806a1.2,1.2,0,0,1-1.166,1.227H156.815a1.227,1.227,0,0,0,0,2.454h41.866a3.655,3.655,0,0,0,3.619-3.681V3.681A3.655,3.655,0,0,0,198.681,0Zm1.166,4.907H154.453V3.681a1.2,1.2,0,0,1,1.166-1.227h43.063a1.2,1.2,0,0,1,1.166,1.227Z" transform="translate(-151.999)"/>
        </g>
      </g>
      <g id="Group_24" data-name="Group 24" transform="translate(66.25 15.642)">
        <g id="Group_23" data-name="Group 23">
          <path id="Path_102" data-name="Path 102" d="M433.227,102A1.227,1.227,0,0,0,432,103.227V120.71a1.227,1.227,0,1,0,2.454,0V103.227A1.227,1.227,0,0,0,433.227,102Z" transform="translate(-432 -102)"/>
        </g>
      </g>
      <g id="Group_26" data-name="Group 26" transform="translate(61.343 23.31)">
        <g id="Group_25" data-name="Group 25">
          <path id="Path_103" data-name="Path 103" d="M401.227,152A1.227,1.227,0,0,0,400,153.227v9.815a1.227,1.227,0,1,0,2.454,0v-9.815A1.227,1.227,0,0,0,401.227,152Z" transform="translate(-400 -152)"/>
        </g>
      </g>
      <g id="Group_28" data-name="Group 28" transform="translate(56.435 20.857)">
        <g id="Group_27" data-name="Group 27">
          <path id="Path_104" data-name="Path 104" d="M369.227,136A1.227,1.227,0,0,0,368,137.227V149.5a1.227,1.227,0,0,0,2.454,0V137.227A1.227,1.227,0,0,0,369.227,136Z" transform="translate(-368 -136)"/>
        </g>
      </g>
      <g id="Group_30" data-name="Group 30" transform="translate(51.528 28.218)">
        <g id="Group_29" data-name="Group 29">
          <path id="Path_105" data-name="Path 105" d="M337.227,184A1.227,1.227,0,0,0,336,185.227v4.907a1.227,1.227,0,1,0,2.454,0v-4.907A1.227,1.227,0,0,0,337.227,184Z" transform="translate(-336 -184)"/>
        </g>
      </g>
      <g id="Group_32" data-name="Group 32" transform="translate(46.62 9.815)">
        <g id="Group_31" data-name="Group 31">
          <path id="Path_106" data-name="Path 106" d="M325.537,64.2a1.227,1.227,0,0,0-1.7.34l-4.188,6.282-3.87-2.9a1.227,1.227,0,0,0-1.84.433l-4.777,9.556L304.49,81.42a1.227,1.227,0,0,0,1.472,1.963L310.87,79.7a1.237,1.237,0,0,0,.368-.433l4.249-8.5,3.726,2.8a1.227,1.227,0,0,0,1.718-.245c.014-.018.027-.037.039-.055l4.907-7.361A1.227,1.227,0,0,0,325.537,64.2Z" transform="translate(-303.999 -63.998)"/>
        </g>
      </g>
      <g id="Group_34" data-name="Group 34" transform="translate(28.218 9.815)">
        <g id="Group_33" data-name="Group 33">
          <path id="Path_107" data-name="Path 107" d="M199.949,64H185.227a1.227,1.227,0,1,0,0,2.454h14.722a1.227,1.227,0,1,0,0-2.454Z" transform="translate(-184 -64)"/>
        </g>
      </g>
      <g id="Group_36" data-name="Group 36" transform="translate(47.847 9.815)">
        <g id="Group_35" data-name="Group 35">
          <path id="Path_108" data-name="Path 108" d="M315.681,64h-2.454a1.227,1.227,0,0,0,0,2.454h2.454a1.227,1.227,0,1,0,0-2.454Z" transform="translate(-312 -64)"/>
        </g>
      </g>
    </g>
  </g>
</svg>
