<svg xmlns="http://www.w3.org/2000/svg" width="176.017" height="38.004" viewBox="0 0 176.017 38.004">
  <g id="logo" transform="translate(267.782 119.791)">
    <g id="Group_333" data-name="Group 333" transform="translate(-230.143 -111.056)">
      <path id="Path_239" data-name="Path 239" d="M-203.332-98.693v-3.012h3.656v3.012Zm3.656,2.06v13.31h-3.656v-13.31Z" transform="translate(203.332 103.532)" fill="#fff"/>
      <path id="Path_240" data-name="Path 240" d="M-188.3-101.705v18.383h-3.656v-18.383Z" transform="translate(198.6 103.532)" fill="#fff"/>
      <path id="Path_241" data-name="Path 241" d="M-180.585-98.693v-3.012h3.656v3.012Zm3.656,2.06v13.31h-3.656v-13.31Z" transform="translate(193.869 103.532)" fill="#fff"/>
      <path id="Path_242" data-name="Path 242" d="M-169.6-94.163a6.231,6.231,0,0,1,1.391-2.214,6.219,6.219,0,0,1,2.163-1.416,7.59,7.59,0,0,1,2.832-.5,7.7,7.7,0,0,1,2.845.5,6.209,6.209,0,0,1,2.175,1.416,6.246,6.246,0,0,1,1.39,2.214,8.177,8.177,0,0,1,.489,2.9,8.064,8.064,0,0,1-.489,2.883,6.257,6.257,0,0,1-1.39,2.2,6.045,6.045,0,0,1-2.175,1.4,7.883,7.883,0,0,1-2.845.489,7.771,7.771,0,0,1-2.832-.489,6.054,6.054,0,0,1-2.163-1.4,6.242,6.242,0,0,1-1.391-2.2,8.064,8.064,0,0,1-.489-2.883A8.177,8.177,0,0,1-169.6-94.163Zm3.321,4.454a4.143,4.143,0,0,0,.528,1.364,2.809,2.809,0,0,0,.991.966,3.023,3.023,0,0,0,1.545.36,3.094,3.094,0,0,0,1.558-.36,2.786,2.786,0,0,0,1-.966,4.154,4.154,0,0,0,.527-1.364,7.816,7.816,0,0,0,.155-1.558,7.994,7.994,0,0,0-.155-1.57,4.024,4.024,0,0,0-.527-1.365,2.93,2.93,0,0,0-1-.965,3.012,3.012,0,0,0-1.558-.373,2.944,2.944,0,0,0-1.545.373,2.957,2.957,0,0,0-.991.965,4.013,4.013,0,0,0-.528,1.365,7.994,7.994,0,0,0-.154,1.57A7.816,7.816,0,0,0-166.283-89.709Zm3.862-15.125-2.729,4.557h2.549l4.2-4.557Z" transform="translate(189.505 104.834)" fill="#fff"/>
      <path id="Path_243" data-name="Path 243" d="M-138.978-93.276v1.853h.077a4.2,4.2,0,0,1,1.8-1.687,5.213,5.213,0,0,1,2.265-.527,6.192,6.192,0,0,1,2.407.4,3.56,3.56,0,0,1,1.48,1.107,4.288,4.288,0,0,1,.759,1.725,10.726,10.726,0,0,1,.219,2.253v8.188h-3.656v-7.518a4.666,4.666,0,0,0-.514-2.458,2,2,0,0,0-1.828-.811,2.533,2.533,0,0,0-2.163.887,4.937,4.937,0,0,0-.67,2.922v6.978h-3.655v-13.31Z" transform="translate(178.007 100.176)" fill="#fff"/>
      <path id="Path_244" data-name="Path 244" d="M-116.226-91.191a3.789,3.789,0,0,1,1.12-1.391,4.754,4.754,0,0,1,1.66-.8,8.108,8.108,0,0,1,2.111-.257,9.355,9.355,0,0,1,1.751.167,4.238,4.238,0,0,1,1.57.631,3.436,3.436,0,0,1,1.133,1.3,4.7,4.7,0,0,1,.437,2.175v7.055a.853.853,0,0,0,.953.978,1.241,1.241,0,0,0,.515-.1v1.364c-.189.035-.356.06-.5.078a4.924,4.924,0,0,1-.553.026,2.455,2.455,0,0,1-.992-.168,1.329,1.329,0,0,1-.579-.477,1.77,1.77,0,0,1-.27-.734,6.237,6.237,0,0,1-.065-.94h-.051a10.88,10.88,0,0,1-.888,1.146,4.39,4.39,0,0,1-1,.836,4.647,4.647,0,0,1-1.261.516,6.929,6.929,0,0,1-1.687.18,6.641,6.641,0,0,1-1.737-.219,3.892,3.892,0,0,1-1.416-.7,3.324,3.324,0,0,1-.953-1.209,4.025,4.025,0,0,1-.347-1.738,3.436,3.436,0,0,1,.618-2.175,3.888,3.888,0,0,1,1.635-1.2,9.359,9.359,0,0,1,2.292-.578q1.274-.167,2.587-.323.515-.051.9-.128a1.6,1.6,0,0,0,.644-.27,1.265,1.265,0,0,0,.4-.529,2.289,2.289,0,0,0,.141-.876,2.966,2.966,0,0,0-.27-1.351,2.14,2.14,0,0,0-.746-.836,3.007,3.007,0,0,0-1.107-.425,7.555,7.555,0,0,0-1.351-.116,4.093,4.093,0,0,0-2.523.734,2.875,2.875,0,0,0-1.03,2.355h-1.622A5.381,5.381,0,0,1-116.226-91.191Zm8.11,3.965a.926.926,0,0,1-.592.412,6.078,6.078,0,0,1-.773.18q-1.029.18-2.124.321a11.8,11.8,0,0,0-1.995.425,3.909,3.909,0,0,0-1.48.811,1.936,1.936,0,0,0-.579,1.507,2.354,2.354,0,0,0,.245,1.094,2.646,2.646,0,0,0,.656.823,2.846,2.846,0,0,0,.953.528,3.458,3.458,0,0,0,1.107.18,5.554,5.554,0,0,0,1.777-.283,4.371,4.371,0,0,0,1.48-.823,4,4,0,0,0,1-1.314,3.976,3.976,0,0,0,.373-1.75v-2.111Z" transform="translate(167.536 100.176)" fill="#fff"/>
      <path id="Path_245" data-name="Path 245" d="M-91.59-93.251v2.291h.051A3.893,3.893,0,0,1-89.891-92.9a4.84,4.84,0,0,1,2.6-.734,6.538,6.538,0,0,1,2.33.361,3.7,3.7,0,0,1,1.506,1.016,3.8,3.8,0,0,1,.8,1.61,9.07,9.07,0,0,1,.232,2.136v8.548h-1.622v-8.291A7.7,7.7,0,0,0-84.2-89.84a3.346,3.346,0,0,0-.541-1.274,2.618,2.618,0,0,0-1.042-.85,3.821,3.821,0,0,0-1.635-.31,4.118,4.118,0,0,0-1.737.348,3.752,3.752,0,0,0-1.287.953,4.375,4.375,0,0,0-.824,1.442,5.862,5.862,0,0,0-.322,1.815v7.75h-1.622V-93.251Z" transform="translate(157.523 100.176)" fill="#fff"/>
      <path id="Path_246" data-name="Path 246" d="M-69.675-91.191a3.8,3.8,0,0,1,1.12-1.391,4.752,4.752,0,0,1,1.661-.8,8.1,8.1,0,0,1,2.111-.257,9.355,9.355,0,0,1,1.751.167,4.238,4.238,0,0,1,1.57.631,3.436,3.436,0,0,1,1.133,1.3,4.7,4.7,0,0,1,.437,2.175v7.055a.853.853,0,0,0,.953.978,1.24,1.24,0,0,0,.515-.1v1.364c-.189.035-.356.06-.5.078a4.936,4.936,0,0,1-.554.026,2.45,2.45,0,0,1-.991-.168,1.327,1.327,0,0,1-.579-.477,1.77,1.77,0,0,1-.27-.734,6.241,6.241,0,0,1-.064-.94h-.052a10.882,10.882,0,0,1-.888,1.146,4.39,4.39,0,0,1-1,.836,4.639,4.639,0,0,1-1.261.516,6.928,6.928,0,0,1-1.686.18,6.646,6.646,0,0,1-1.738-.219,3.9,3.9,0,0,1-1.416-.7,3.324,3.324,0,0,1-.953-1.209,4.025,4.025,0,0,1-.347-1.738,3.436,3.436,0,0,1,.618-2.175,3.886,3.886,0,0,1,1.635-1.2,9.347,9.347,0,0,1,2.291-.578q1.275-.167,2.587-.323.515-.051.9-.128a1.6,1.6,0,0,0,.644-.27,1.255,1.255,0,0,0,.4-.529,2.289,2.289,0,0,0,.141-.876,2.958,2.958,0,0,0-.27-1.351,2.135,2.135,0,0,0-.746-.836,3.007,3.007,0,0,0-1.107-.425,7.546,7.546,0,0,0-1.351-.116,4.091,4.091,0,0,0-2.523.734,2.874,2.874,0,0,0-1.03,2.355h-1.622A5.381,5.381,0,0,1-69.675-91.191Zm8.11,3.965a.926.926,0,0,1-.592.412,6.094,6.094,0,0,1-.772.18q-1.03.18-2.125.321a11.8,11.8,0,0,0-1.995.425,3.908,3.908,0,0,0-1.48.811,1.936,1.936,0,0,0-.579,1.507,2.354,2.354,0,0,0,.245,1.094,2.63,2.63,0,0,0,.656.823,2.837,2.837,0,0,0,.952.528,3.461,3.461,0,0,0,1.107.18,5.554,5.554,0,0,0,1.777-.283,4.374,4.374,0,0,0,1.48-.823,4,4,0,0,0,1-1.314,3.968,3.968,0,0,0,.373-1.75v-2.111Z" transform="translate(148.171 100.176)" fill="#fff"/>
      <path id="Path_247" data-name="Path 247" d="M-44.951-101.705v18.383h-1.622v-18.383Z" transform="translate(138.121 103.532)" fill="#fff"/>
      <path id="Path_248" data-name="Path 248" d="M-39.652-98.735l2.7-3.63h2.008l-3.4,3.63Zm.721,1.854h1.622V-83.6h-1.622Z" transform="translate(135.242 103.807)" fill="#fff"/>
      <path id="Path_249" data-name="Path 249" d="M-26-95.818v1.364h-2.7v8.959a2.908,2.908,0,0,0,.219,1.249q.218.45,1.094.5A12.752,12.752,0,0,0-26-83.821v1.364q-.361,0-.721.026t-.721.026a3.2,3.2,0,0,1-2.265-.631,3.178,3.178,0,0,1-.618-2.33v-9.088h-2.317v-1.364h2.317v-3.99H-28.7v3.99Z" transform="translate(132.326 102.743)" fill="#fff"/>
      <path id="Path_250" data-name="Path 250" d="M-15.592-101.705v2.6h-1.622v-2.6Zm0,5.1v13.285h-1.622V-96.607Z" transform="translate(125.908 103.532)" fill="#fff"/>
      <path id="Path_251" data-name="Path 251" d="M-1.445-91.423a3.531,3.531,0,0,0-2.522-.85A4.1,4.1,0,0,0-6-91.783,4.475,4.475,0,0,0-7.456-90.5a5.856,5.856,0,0,0-.875,1.816,7.373,7.373,0,0,0-.3,2.071,7.365,7.365,0,0,0,.3,2.072,5.843,5.843,0,0,0,.875,1.816A4.462,4.462,0,0,0-6-81.434a4.1,4.1,0,0,0,2.034.489,3.58,3.58,0,0,0,1.416-.283,3.805,3.805,0,0,0,1.184-.785,4.2,4.2,0,0,0,.85-1.2,4.43,4.43,0,0,0,.412-1.52H1.516A6.126,6.126,0,0,1-.26-80.958a5.2,5.2,0,0,1-3.707,1.352,6.225,6.225,0,0,1-2.691-.554,5.706,5.706,0,0,1-1.97-1.506,6.555,6.555,0,0,1-1.21-2.226,8.787,8.787,0,0,1-.412-2.717,8.786,8.786,0,0,1,.412-2.716,6.571,6.571,0,0,1,1.21-2.226,5.857,5.857,0,0,1,1.97-1.52,6.11,6.11,0,0,1,2.691-.566A5.777,5.777,0,0,1-.35-92.5,4.836,4.836,0,0,1,1.414-89.08H-.208A4.465,4.465,0,0,0-1.445-91.423Z" transform="translate(123.011 100.176)" fill="#fff"/>
      <path id="Path_252" data-name="Path 252" d="M13.6-91.191a3.8,3.8,0,0,1,1.12-1.391,4.752,4.752,0,0,1,1.661-.8,8.1,8.1,0,0,1,2.111-.257,9.355,9.355,0,0,1,1.751.167,4.238,4.238,0,0,1,1.57.631,3.436,3.436,0,0,1,1.133,1.3,4.7,4.7,0,0,1,.437,2.175v7.055a.853.853,0,0,0,.953.978,1.24,1.24,0,0,0,.515-.1v1.364c-.189.035-.356.06-.5.078a4.936,4.936,0,0,1-.554.026,2.45,2.45,0,0,1-.991-.168,1.327,1.327,0,0,1-.579-.477,1.77,1.77,0,0,1-.27-.734,6.242,6.242,0,0,1-.064-.94h-.052a10.883,10.883,0,0,1-.888,1.146,4.39,4.39,0,0,1-1,.836,4.639,4.639,0,0,1-1.261.516,6.928,6.928,0,0,1-1.686.18,6.646,6.646,0,0,1-1.738-.219,3.9,3.9,0,0,1-1.416-.7,3.324,3.324,0,0,1-.953-1.209,4.025,4.025,0,0,1-.347-1.738,3.436,3.436,0,0,1,.618-2.175,3.886,3.886,0,0,1,1.635-1.2,9.347,9.347,0,0,1,2.291-.578q1.275-.167,2.587-.323.515-.051.9-.128a1.6,1.6,0,0,0,.644-.27,1.255,1.255,0,0,0,.4-.529,2.289,2.289,0,0,0,.141-.876,2.958,2.958,0,0,0-.27-1.351,2.14,2.14,0,0,0-.746-.836,3.007,3.007,0,0,0-1.107-.425,7.546,7.546,0,0,0-1.351-.116,4.094,4.094,0,0,0-2.523.734,2.875,2.875,0,0,0-1.03,2.355H13.108A5.381,5.381,0,0,1,13.6-91.191Zm8.11,3.965a.926.926,0,0,1-.592.412,6.094,6.094,0,0,1-.772.18q-1.03.18-2.125.321a11.8,11.8,0,0,0-1.995.425,3.909,3.909,0,0,0-1.48.811,1.936,1.936,0,0,0-.579,1.507,2.361,2.361,0,0,0,.244,1.094,2.64,2.64,0,0,0,.657.823,2.837,2.837,0,0,0,.952.528,3.461,3.461,0,0,0,1.107.18,5.554,5.554,0,0,0,1.777-.283,4.374,4.374,0,0,0,1.48-.823,4,4,0,0,0,1-1.314,3.968,3.968,0,0,0,.373-1.75v-2.111Z" transform="translate(113.53 100.176)" fill="#fff"/>
    </g>
    <path id="Path_275" data-name="Path 275" d="M-254.331-77.877a33.606,33.606,0,0,0-.133,3.664c.133.026-5.658.026-7.374-.006a6.1,6.1,0,0,1-5.487-3.937,6.211,6.211,0,0,1,1.18-6.519c2.505-3.089,4.973-6.208,7.443-9.325a1.233,1.233,0,0,0,.228-.682c.034-.887.013-1.776.043-2.663.013-.4-.109-.532-.522-.532-1.34,0-1.34-.016-1.34-1.351,0-.562.03-1.126-.009-1.685-.032-.458.148-.63.583-.627q1.985.011,3.969.008c.91,0,.906,0,.905.93,0,2.411.006,4.822-.018,7.232a1.453,1.453,0,0,1-.284.833c-2.488,3.126-5,6.234-7.5,9.354a11.811,11.811,0,0,0-1.165,1.625,2.558,2.558,0,0,0,2.182,3.683c1.5-.015,6.556,0,6.556,0Z" transform="translate(0 -7.592)" fill="#fff"/>
    <path id="Path_276" data-name="Path 276" d="M-244.75-96.129a33.608,33.608,0,0,1,.133,3.664c-.133.026,5.658.027,7.374-.006a6.1,6.1,0,0,0,5.487-3.937,6.212,6.212,0,0,0-1.18-6.52c-2.505-3.088-4.973-6.207-7.443-9.324a1.233,1.233,0,0,1-.228-.682c-.034-.887-.013-1.776-.043-2.663-.013-.4.109-.532.522-.532,1.34,0,1.34-.016,1.34-1.351,0-.562-.03-1.126.009-1.685.032-.458-.148-.63-.583-.627-1.323.008-2.646.008-3.969.007-.91,0-.906,0-.905.931,0,2.411-.006,4.822.018,7.232a1.456,1.456,0,0,0,.284.833c2.488,3.126,5,6.234,7.5,9.354a11.8,11.8,0,0,1,1.165,1.624,2.558,2.558,0,0,1-2.182,3.683c-1.5-.015-6.556,0-6.556,0Z" transform="translate(-9.581 0)" fill="#fff"/>
  </g>
</svg>
