<svg xmlns="http://www.w3.org/2000/svg" width="160" height="160" viewBox="0 0 160 160">
  <g id="Group_347" data-name="Group 347" transform="translate(-234 -1121)">
    <circle id="Ellipse_48" data-name="Ellipse 48" cx="80" cy="80" r="80" transform="translate(234 1121)" fill="#21a8b5" opacity="0.129"/>
    <g id="Group_4" data-name="Group 4" transform="translate(272.236 1158.093)">
      <g id="Group_3" data-name="Group 3">
        <path id="Path_72" data-name="Path 72" d="M17.837,63.693q-.57-.539-1.148-1.087C22.405,57,28.226,50.11,28.226,40.766S22.405,24.533,16.689,18.924q.576-.548,1.148-1.087c4.928-4.655,9.183-8.676,9.183-13.271V3.36H24.606V4.567a6.054,6.054,0,0,1-.56,2.413H5.86A6.054,6.054,0,0,1,5.3,4.567V3.36H2.887V4.567c0,4.595,4.255,8.615,9.183,13.272q.57.539,1.148,1.087C7.5,24.533,1.68,31.422,1.68,40.766S7.5,57,13.217,62.607q-.576.548-1.148,1.087C7.141,68.35,2.887,72.37,2.887,76.965v1.207H5.3V76.965a6.054,6.054,0,0,1,.56-2.413H24.048a6.073,6.073,0,0,1,.559,2.413v1.207h2.413V76.965C27.019,72.37,22.765,68.35,17.837,63.693ZM7.3,9.393H22.6a28.332,28.332,0,0,1-2.061,2.413H9.364A28.114,28.114,0,0,1,7.3,9.393Zm4.465,4.827h6.37c-.633.611-1.287,1.23-1.958,1.864-.4.381-.813.769-1.226,1.161l-1.226-1.161C13.056,15.449,12.4,14.83,11.768,14.22Zm3.186,6.38c1.46,1.429,2.9,2.912,4.237,4.48H10.717C12.05,23.511,13.493,22.028,14.953,20.6ZM5.964,32.319h11.4V29.906H7.235q.776-1.312,1.684-2.548v.135H20.986v-.135q.907,1.236,1.684,2.548H19.78v2.413h4.164a21.962,21.962,0,0,1,.913,2.413H5.05A21.72,21.72,0,0,1,5.964,32.319ZM4.428,37.146H25.48a20.049,20.049,0,0,1,.279,2.413H4.149A19.572,19.572,0,0,1,4.428,37.146ZM5.049,46.8H8.92V44.386H4.426a20.049,20.049,0,0,1-.279-2.413h21.61a19.571,19.571,0,0,1-.279,2.413H11.333V46.8H24.856a21.72,21.72,0,0,1-.913,2.413H5.962A21.962,21.962,0,0,1,5.049,46.8ZM8.92,54.174q-.907-1.238-1.684-2.548H22.671q-.775,1.312-1.684,2.548v-.135H8.92Zm1.8,2.278H19.19c-1.333,1.569-2.776,3.052-4.237,4.48C13.493,59.5,12.05,58.021,10.717,56.452Zm3.011,9c.4-.381.813-.769,1.226-1.161q.621.59,1.226,1.161c.671.635,1.326,1.254,1.958,1.864h-6.37C12.4,66.7,13.056,66.082,13.727,65.448ZM7.3,72.139a28.333,28.333,0,0,1,2.061-2.413h11.18A28.334,28.334,0,0,1,22.6,72.139Z" transform="translate(1.32 3.554)" fill="#312e2e"/>
      </g>
    </g>
    <g id="Group_6" data-name="Group 6" transform="translate(303.285 1157.5)">
      <g id="Group_5" data-name="Group 5">
        <path id="Path_73" data-name="Path 73" d="M219.912,65.665h-1.946a34.936,34.936,0,0,0-6.848-42.541l3.276-3.276-2.414-2.414,4.328-4.326,1.211,1.21,5.3-5.349L213.877,0l-5.3,5.38,1.2,1.2-4.332,4.317-2.4-2.4L186.142,25.383l-2.413-2.413L178.4,28.3l16.186,16.186,5.326-5.326L197.5,36.742l6.769-6.769a25.523,25.523,0,0,1,7.363,11.68,4.816,4.816,0,0,0,.923,9.52,25.358,25.358,0,0,1-.469,3,8.4,8.4,0,0,0-3.035-.573h-18.1a6.04,6.04,0,0,0-6.033,6.033v1.207H200.7a8.477,8.477,0,0,0-.1,1.207v3.62H183.713A6.04,6.04,0,0,0,177.68,71.7v3.62h48.266V71.7A6.04,6.04,0,0,0,219.912,65.665ZM213.886,3.427l5.53,5.547L217.51,10.9l-5.535-5.531Zm-2.407,4.856L214.6,11.4l-4.327,4.325L207.147,12.6ZM194.589,41.068,181.815,28.295l1.914-1.914L196.5,39.154Zm1.207-6.033-7.947-7.947L203.035,11.9l7.947,7.947Zm10.184-6.77,3.433-3.433a32.57,32.57,0,0,1,8.043,36.362,8.435,8.435,0,0,0-3.183-5.775,27.8,27.8,0,0,0,.748-4.869,4.789,4.789,0,0,0-.843-8.753A27.915,27.915,0,0,0,205.979,28.264Zm4.28,18.095a2.413,2.413,0,1,1,2.413,2.413A2.416,2.416,0,0,1,210.259,46.359Zm-22.72,12.066a3.627,3.627,0,0,1,3.414-2.413h12.2a8.462,8.462,0,0,0-1.719,2.413Zm35.993,14.48H180.093V71.7a3.624,3.624,0,0,1,3.62-3.62h21.72V65.665h-2.413v-3.62a6.033,6.033,0,1,1,12.066,0v3.62h-7.24v2.413h12.066a3.624,3.624,0,0,1,3.62,3.62Z" transform="translate(-179.183 7)" fill="#312e2e"/>
      </g>
    </g>
  </g>
</svg>
