<svg xmlns="http://www.w3.org/2000/svg" width="160" height="160" viewBox="0 0 160 160">
  <g id="Group_348" data-name="Group 348" transform="translate(-494 -1121)">
    <circle id="Ellipse_48" data-name="Ellipse 48" cx="80" cy="80" r="80" transform="translate(494 1121)" fill="#21a8b5" opacity="0.129"/>
    <path id="Path_138" data-name="Path 138" d="M106.8,60.959l-2.708-5.415a30.382,30.382,0,0,0,1.471-3.515l5.732-1.911V34.431l-5.732-1.911A30.151,30.151,0,0,0,104.087,29l2.71-5.42L95.706,12.492l-5.42,2.71a30.147,30.147,0,0,0-3.515-1.471L84.86,8H69.173l-1.911,5.732A30.148,30.148,0,0,0,63.746,15.2l-5.42-2.71L47.234,23.584,49.945,29a30.148,30.148,0,0,0-1.471,3.515l-5.732,1.911V50.116l5.732,1.911a30,30,0,0,0,1.456,3.487l-1.763,3.212H40V86.145h9.6V82.032H60l4.113,4.113h7.423v1.371a5.484,5.484,0,0,0,10.968,0V86.145h9.6a4.1,4.1,0,0,0,3.044-6.855,4.051,4.051,0,0,0,0-5.484,4.084,4.084,0,0,0,1.006-2.115ZM52.7,54.906a27.442,27.442,0,0,1-1.83-4.375l-.211-.666L45.484,48.14V36.407l5.173-1.724.21-.667a27.231,27.231,0,0,1,1.829-4.373l.323-.621-2.447-4.9,8.3-8.3,4.9,2.447.621-.322a27.286,27.286,0,0,1,4.373-1.83l.667-.21,1.726-5.174H82.884l1.724,5.173.667.21a27.23,27.23,0,0,1,4.373,1.829l.621.323,4.9-2.447,8.3,8.3-2.447,4.9.322.621a27.288,27.288,0,0,1,1.83,4.373l.21.667,5.174,1.726V48.142l-5.173,1.724-.211.666a27.443,27.443,0,0,1-1.83,4.375l-.322.621,2.45,4.9-8.1,8.164c-.07-.092-.144-.182-.22-.267a4.078,4.078,0,0,0-2.666-6.817,24.682,24.682,0,1,0-30.959-.038H49.79l3.245-5.912ZM93.469,76.548A1.373,1.373,0,0,1,92.1,77.919H81.129a1.371,1.371,0,0,1,0-2.742H92.1A1.373,1.373,0,0,1,93.469,76.548ZM73.707,42.274h6.619L82.5,40.1V34.048a2.745,2.745,0,0,1,2.742,2.742v6.287l-4.681,4.681h-7.09L68.79,43.077V36.79a2.745,2.745,0,0,1,2.742-2.742V40.1Zm.568,8.226h5.484v5.484H74.274Zm8.226-.8,5.484-5.484V36.79A5.489,5.489,0,0,0,82.5,31.306H79.758v7.658l-.568.568H74.842l-.568-.568V31.306H71.532a5.489,5.489,0,0,0-5.484,5.484v7.423L71.532,49.7v6.287h-3.31l-.086.086a16.444,16.444,0,1,1,17.909-.086H82.5Zm13.71-7.423A19.194,19.194,0,1,0,66.14,58.066l-1.974,1.974a21.931,21.931,0,1,1,26.494-.6,4.082,4.082,0,0,0-1.366-2.44A19.067,19.067,0,0,0,96.21,42.274ZM92.1,64.21a1.371,1.371,0,0,1,0,2.742H81.129a1.371,1.371,0,0,1,0-2.742ZM81.129,72.435a1.371,1.371,0,0,1,0-2.742H92.1a1.371,1.371,0,0,1,0,2.742ZM46.855,83.4H42.742V61.468h4.113Zm18.39,0L61.132,79.29H49.6V64.21H63.874l5.484-5.484H86.613a1.371,1.371,0,1,1,0,2.742H72.336L66.45,67.353l1.939,1.939,3.144-3.144V83.4Zm11.771,6.855a2.745,2.745,0,0,1-2.742-2.742V64.21h2.994a3.986,3.986,0,0,0,.817,4.113,4.051,4.051,0,0,0,0,5.484,4.051,4.051,0,0,0,0,5.484,4.075,4.075,0,0,0,1.673,6.6v1.623A2.745,2.745,0,0,1,77.016,90.258ZM92.1,83.4H81.129a1.371,1.371,0,1,1,0-2.742H92.1a1.371,1.371,0,1,1,0,2.742Zm0,0" transform="translate(500.59 1150.818)"/>
  </g>
</svg>
