<svg id="Group_345" data-name="Group 345" xmlns="http://www.w3.org/2000/svg" width="33.74" height="33.74" viewBox="0 0 33.74 33.74">
  <circle id="Ellipse_253" data-name="Ellipse 253" cx="16.87" cy="16.87" r="16.87" transform="translate(0 0)" fill="#1fa9b5"/>
  <g id="_003-envelope" data-name="003-envelope" transform="translate(7.955 9.604)">
    <g id="Group_332" data-name="Group 332" transform="translate(0 0)">
      <path id="Path_237" data-name="Path 237" d="M16.905,57.75H2.355A2.357,2.357,0,0,0,0,60.1v9.945A2.357,2.357,0,0,0,2.355,72.4H16.9a2.357,2.357,0,0,0,2.355-2.355V60.109A2.354,2.354,0,0,0,16.905,57.75Zm1.279,12.3a1.28,1.28,0,0,1-1.279,1.279H2.355a1.28,1.28,0,0,1-1.279-1.279V60.109A1.28,1.28,0,0,1,2.355,58.83H16.9a1.28,1.28,0,0,1,1.279,1.279v9.941Z" transform="translate(0 -57.75)" fill="#fff" stroke="#fff" stroke-width="0.5"/>
      <path id="Path_238" data-name="Path 238" d="M65.675,114.068l4.709-4.223a.539.539,0,1,0-.721-.8l-6.494,5.829L61.9,113.741s-.008-.008-.008-.012a.8.8,0,0,0-.088-.076l-5.156-4.614a.539.539,0,0,0-.717.8L60.7,114.1l-4.745,4.442a.54.54,0,0,0-.024.761.55.55,0,0,0,.394.171.539.539,0,0,0,.367-.143l4.817-4.506L62.814,116a.536.536,0,0,0,.717,0l1.343-1.2,4.789,4.55a.539.539,0,0,0,.761-.02.54.54,0,0,0-.02-.761Z" transform="translate(-53.531 -106.864)" fill="#fff" stroke="#fff" stroke-width="0.5"/>
    </g>
  </g>
</svg>
