<svg xmlns="http://www.w3.org/2000/svg" width="33.74" height="33.74" viewBox="0 0 33.74 33.74">
  <g id="Group_344" data-name="Group 344" transform="translate(0 -5)">
    <circle id="Ellipse_254" data-name="Ellipse 254" cx="16.87" cy="16.87" r="16.87" transform="translate(0 5)" fill="#1fa9b5"/>
    <g id="_002-telephone" data-name="002-telephone" transform="translate(7.955 7.32)">
      <path id="Path_236" data-name="Path 236" d="M4.679,12.4a19.8,19.8,0,0,0,6.585,5.158,10.248,10.248,0,0,0,3.685,1.09c.089,0,.174.008.263.008a3.051,3.051,0,0,0,2.366-1.017.084.084,0,0,0,.015-.019,9.962,9.962,0,0,1,.746-.773c.182-.174.367-.356.545-.541a1.867,1.867,0,0,0-.008-2.78l-2.324-2.324a1.881,1.881,0,0,0-1.361-.626,1.944,1.944,0,0,0-1.376.623l-1.384,1.384c-.128-.073-.259-.139-.383-.2a4.782,4.782,0,0,1-.425-.232,14.65,14.65,0,0,1-3.5-3.186A8.436,8.436,0,0,1,6.941,7.08c.363-.329.7-.673,1.032-1.009.116-.12.236-.24.356-.36A1.982,1.982,0,0,0,8.97,4.319a1.967,1.967,0,0,0-.642-1.392L7.176,1.775c-.135-.135-.263-.267-.394-.4C6.527,1.11,6.26.839,6,.6A1.928,1.928,0,0,0,4.636,0,1.985,1.985,0,0,0,3.26.6L1.814,2.045a2.971,2.971,0,0,0-.885,1.9,7.156,7.156,0,0,0,.537,3.093A18,18,0,0,0,4.679,12.4ZM1.872,4.029a2.045,2.045,0,0,1,.615-1.315L3.925,1.276A1.041,1.041,0,0,1,4.636.947a.988.988,0,0,1,.7.336c.259.24.5.491.766.758.131.135.267.271.4.41L7.652,3.6a1.05,1.05,0,0,1,.363.723,1.05,1.05,0,0,1-.363.723c-.12.12-.24.244-.36.363-.36.363-.7.708-1.067,1.036l-.019.019a.756.756,0,0,0-.193.858c0,.012.008.019.012.031A9.1,9.1,0,0,0,7.381,9.566a15.462,15.462,0,0,0,3.727,3.395,5.535,5.535,0,0,0,.51.278,4.78,4.78,0,0,1,.425.232l.043.023a.808.808,0,0,0,.375.1.82.82,0,0,0,.576-.263l1.446-1.446a1.023,1.023,0,0,1,.708-.344.971.971,0,0,1,.684.344l2.332,2.328a.932.932,0,0,1-.012,1.458c-.162.174-.333.34-.514.514a11.136,11.136,0,0,0-.808.839,2.123,2.123,0,0,1-1.659.7c-.066,0-.135,0-.2-.008a9.31,9.31,0,0,1-3.333-1,18.806,18.806,0,0,1-6.268-4.91A17.225,17.225,0,0,1,2.359,6.724,6.236,6.236,0,0,1,1.872,4.029Z" transform="translate(-0.912 5)" fill="#fff" stroke="#fafafa" stroke-width="0.5"/>
    </g>
  </g>
</svg>
