<?xml version="1.0" encoding="utf-8"?>
<!-- Generator: Adobe Illustrator 23.0.6, SVG Export Plug-In . SVG Version: 6.00 Build 0)  -->
<svg version="1.1" id="Layer_1" xmlns="http://www.w3.org/2000/svg" xmlns:xlink="http://www.w3.org/1999/xlink" x="0px" y="0px"
	 viewBox="0 0 33.7 33.7" style="enable-background:new 0 0 33.7 33.7;" xml:space="preserve">
<style type="text/css">
	.st0{fill:#1FA9B5;}
</style>
<path class="st0" d="M14.9,19.8l5.3-3.1l-5.3-3.1V19.8z"/>
<path class="st0" d="M17,0.4C8,0.4,0.7,7.7,0.7,16.7S8,33,17,33s16.3-7.3,16.3-16.3S26,0.4,17,0.4z M27.2,16.7c0,0,0,3.3-0.4,4.9
	c-0.2,0.9-0.9,1.6-1.8,1.8c-1.6,0.4-8,0.4-8,0.4s-6.4,0-8-0.4c-0.9-0.2-1.6-0.9-1.8-1.8c-0.4-1.6-0.4-4.9-0.4-4.9s0-3.3,0.4-4.9
	C7.5,11,8.2,10.2,9,10c1.6-0.4,8-0.4,8-0.4s6.4,0,8,0.4c0.9,0.2,1.6,0.9,1.8,1.8C27.2,13.4,27.2,16.7,27.2,16.7z"/>
</svg>
